<svg xmlns="http://www.w3.org/2000/svg" xmlns:xlink="http://www.w3.org/1999/xlink" width="361pt" height="152" viewBox="0 0 360.87 114"><g id="graph0" class="graph" transform="scale(1 1) rotate(0) translate(4 110)"><title>g</title><polygon fill="#fff" stroke="none" points="-4 4 -4 -110 356.869 -110 356.869 4 -4 4"/><g id="node1" class="node"><title>0</title><ellipse cx="27" cy="-56" fill="none" stroke="#000" rx="27" ry="18"/><text x="27" y="-51.8" font-family="Times,serif" font-size="14" text-anchor="middle">0</text></g><g id="node2" class="node"><title>1</title><ellipse cx="134.104" cy="-56" fill="none" stroke="#000" rx="27" ry="18"/><text x="134.104" y="-51.8" font-family="Times,serif" font-size="14" text-anchor="middle">1</text></g><g id="edge1" class="edge"><title>0-&gt;1</title><path fill="none" stroke="#000" d="M54.2509,-56C67.0423,-56 82.6346,-56 96.5666,-56"/><polygon fill="#000" stroke="#000" points="96.823 -59.5 106.823 -56 96.823 -52.5 96.823 -59.5"/><text x="80.552" y="-58.8" font-family="Times,serif" font-size="14" text-anchor="middle">a/2</text></g><g id="node3" class="node"><title>2</title><ellipse cx="239.655" cy="-82" fill="none" stroke="#000" rx="27" ry="18"/><text x="239.655" y="-77.8" font-family="Times,serif" font-size="14" text-anchor="middle">2</text></g><g id="edge2" class="edge"><title>1-&gt;2</title><path fill="none" stroke="#000" d="M159.644,-62.1616C172.959,-65.5047 189.633,-69.6913 204.227,-73.3557"/><polygon fill="#000" stroke="#000" points="203.381 -76.752 213.932 -75.793 205.086 -69.963 203.381 -76.752"/><text x="186.879" y="-72.8" font-family="Times,serif" font-size="14" text-anchor="middle">r/2</text></g><g id="node4" class="node"><title>4</title><ellipse cx="239.655" cy="-26" fill="none" stroke="#000" rx="27" ry="18"/><text x="239.655" y="-21.8" font-family="Times,serif" font-size="14" text-anchor="middle">4</text></g><g id="edge3" class="edge"><title>1-&gt;4</title><path fill="none" stroke="#000" d="M159.121,-49.042C172.616,-45.1323 189.683,-40.1877 204.545,-35.8822"/><polygon fill="#000" stroke="#000" points="205.779 -39.169 214.41 -33.024 203.831 -32.445 205.779 -39.169"/><text x="186.879" y="-44.8" font-family="Times,serif" font-size="14" text-anchor="middle">t</text></g><g id="node5" class="node"><title>3</title><ellipse cx="330.869" cy="-84" fill="none" stroke="#000" rx="18" ry="18"/><ellipse cx="330.869" cy="-84" fill="none" stroke="#000" rx="22" ry="22"/><text x="330.869" y="-79.8" font-family="Times,serif" font-size="14" text-anchor="middle">3</text></g><g id="edge4" class="edge"><title>2-&gt;3</title><path fill="none" stroke="#000" d="M266.94,-82.5892C276.858,-82.8116 288.239,-83.0667 298.571,-83.2984"/><polygon fill="#000" stroke="#000" points="298.778 -86.804 308.854 -83.529 298.935 -79.805 298.778 -86.804"/><text x="287.762" y="-85.8" font-family="Times,serif" font-size="14" text-anchor="middle">e</text></g><g id="node6" class="node"><title>5</title><ellipse cx="330.869" cy="-22" fill="none" stroke="#000" rx="18" ry="18"/><ellipse cx="330.869" cy="-22" fill="none" stroke="#000" rx="22" ry="22"/><text x="330.869" y="-17.8" font-family="Times,serif" font-size="14" text-anchor="middle">5</text></g><g id="edge5" class="edge"><title>4-&gt;5</title><path fill="none" stroke="#000" d="M266.94,-24.8215C276.858,-24.3768 288.239,-23.8665 298.571,-23.4033"/><polygon fill="#000" stroke="#000" points="299.021 -26.887 308.854 -22.942 298.707 -19.894 299.021 -26.887"/><text x="287.762" y="-26.8" font-family="Times,serif" font-size="14" text-anchor="middle">e</text></g></g></svg>