<svg xmlns="http://www.w3.org/2000/svg" xmlns:xlink="http://www.w3.org/1999/xlink" width="361pt" height="124pt" viewBox="0 0 360.87 124"><g id="graph0" class="graph" transform="scale(1 1) rotate(0) translate(4 120)"><title>g</title><polygon fill="#fff" stroke="none" points="-4 4 -4 -120 356.869 -120 356.869 4 -4 4"/><g id="node1" class="node"><title>0</title><ellipse cx="27" cy="-50" fill="none" stroke="#000" rx="27" ry="18"/><text x="27" y="-45.8" font-family="Times,serif" font-size="14" text-anchor="middle">0</text></g><g id="node2" class="node"><title>1</title><ellipse cx="134.104" cy="-76" fill="none" stroke="#000" rx="27" ry="18"/><text x="134.104" y="-71.8" font-family="Times,serif" font-size="14" text-anchor="middle">1</text></g><g id="edge1" class="edge"><title>0-&gt;1</title><path fill="none" stroke="#000" d="M52.6421,-56.0958C66.347,-59.4861 83.6195,-63.7589 98.6444,-67.4757"/><polygon fill="#000" stroke="#000" points="98.068 -70.939 108.616 -69.942 99.749 -64.143 98.068 -70.939"/><text x="80.552" y="-66.8" font-family="Times,serif" font-size="14" text-anchor="middle">a/2</text></g><g id="node3" class="node"><title>6</title><ellipse cx="134.104" cy="-22" fill="none" stroke="#000" rx="27" ry="18"/><text x="134.104" y="-17.8" font-family="Times,serif" font-size="14" text-anchor="middle">6</text></g><g id="edge2" class="edge"><title>0-&gt;6</title><path fill="none" stroke="#000" d="M52.377,-43.5059C66.1731,-39.8305 83.6471,-35.1754 98.8069,-31.1368"/><polygon fill="#000" stroke="#000" points="100.097 -34.415 108.859 -28.459 98.295 -27.651 100.097 -34.415"/><text x="80.552" y="-39.8" font-family="Times,serif" font-size="14" text-anchor="middle">s/3</text></g><g id="node4" class="node"><title>2</title><ellipse cx="239.655" cy="-94" fill="none" stroke="#000" rx="27" ry="18"/><text x="239.655" y="-89.8" font-family="Times,serif" font-size="14" text-anchor="middle">2</text></g><g id="edge3" class="edge"><title>1-&gt;2</title><path fill="none" stroke="#000" d="M160.435,-80.4033C173.348,-82.6478 189.26,-85.4138 203.354,-87.8637"/><polygon fill="#000" stroke="#000" points="202.775 -91.315 213.226 -89.58 203.973 -84.419 202.775 -91.315"/><text x="186.879" y="-88.8" font-family="Times,serif" font-size="14" text-anchor="middle">r/2</text></g><g id="edge4" class="edge"><title>1-&gt;2</title><path fill="none" stroke="#000" d="M157.435,-66.9165C168.73,-63.5662 182.571,-61.3757 194.655,-65 201.367,-67.013 208.002,-70.4174 214.004,-74.2005"/><polygon fill="#000" stroke="#000" points="212.059 -77.111 222.281 -79.896 216.027 -71.344 212.059 -77.111"/><text x="186.879" y="-67.8" font-family="Times,serif" font-size="14" text-anchor="middle">t</text></g><g id="node6" class="node"><title>7</title><ellipse cx="239.655" cy="-22" fill="none" stroke="#000" rx="27" ry="18"/><text x="239.655" y="-17.8" font-family="Times,serif" font-size="14" text-anchor="middle">7</text></g><g id="edge6" class="edge"><title>6-&gt;7</title><path fill="none" stroke="#000" d="M161.234,-22C173.743,-22 188.924,-22 202.518,-22"/><polygon fill="#000" stroke="#000" points="202.533 -25.5 212.533 -22 202.533 -18.5 202.533 -25.5"/><text x="186.879" y="-24.8" font-family="Times,serif" font-size="14" text-anchor="middle">e</text></g><g id="node5" class="node"><title>3</title><ellipse cx="330.869" cy="-94" fill="none" stroke="#000" rx="18" ry="18"/><ellipse cx="330.869" cy="-94" fill="none" stroke="#000" rx="22" ry="22"/><text x="330.869" y="-89.8" font-family="Times,serif" font-size="14" text-anchor="middle">3</text></g><g id="edge5" class="edge"><title>2-&gt;3</title><path fill="none" stroke="#000" d="M266.94,-94C276.858,-94 288.239,-94 298.571,-94"/><polygon fill="#000" stroke="#000" points="298.854 -97.5 308.854 -94 298.854 -90.5 298.854 -97.5"/><text x="287.762" y="-96.8" font-family="Times,serif" font-size="14" text-anchor="middle">e</text></g><g id="node7" class="node"><title>8</title><ellipse cx="330.869" cy="-22" fill="none" stroke="#000" rx="18" ry="18"/><ellipse cx="330.869" cy="-22" fill="none" stroke="#000" rx="22" ry="22"/><text x="330.869" y="-17.8" font-family="Times,serif" font-size="14" text-anchor="middle">8</text></g><g id="edge7" class="edge"><title>7-&gt;8</title><path fill="none" stroke="#000" d="M266.94,-22C276.858,-22 288.239,-22 298.571,-22"/><polygon fill="#000" stroke="#000" points="298.854 -25.5 308.854 -22 298.854 -18.5 298.854 -25.5"/><text x="287.762" y="-24.8" font-family="Times,serif" font-size="14" text-anchor="middle">e</text></g></g></svg>