<svg xmlns="http://www.w3.org/2000/svg" xmlns:xlink="http://www.w3.org/1999/xlink" width="350pt" height="52pt" viewBox="0 0 349.98 52"><g id="graph0" class="graph" transform="scale(1 1) rotate(0) translate(4 48)"><title>g</title><polygon fill="#fff" stroke="none" points="-4 4 -4 -48 345.979 -48 345.979 4 -4 4"/><g id="node1" class="node"><title>0</title><ellipse cx="27" cy="-22" fill="none" stroke="#000" rx="27" ry="18"/><text x="27" y="-17.8" font-family="Times,serif" font-size="14" text-anchor="middle">0</text></g><g id="node2" class="node"><title>1</title><ellipse cx="134.104" cy="-22" fill="none" stroke="#000" rx="27" ry="18"/><text x="134.104" y="-17.8" font-family="Times,serif" font-size="14" text-anchor="middle">1</text></g><g id="edge1" class="edge"><title>0-&gt;1</title><path fill="none" stroke="#000" d="M54.2509,-22C67.0423,-22 82.6346,-22 96.5666,-22"/><polygon fill="#000" stroke="#000" points="96.823 -25.5 106.823 -22 96.823 -18.5 96.823 -25.5"/><text x="80.552" y="-24.8" font-family="Times,serif" font-size="14" text-anchor="middle">a/4</text></g><g id="node3" class="node"><title>2</title><ellipse cx="228.766" cy="-22" fill="none" stroke="#000" rx="27" ry="18"/><text x="228.766" y="-17.8" font-family="Times,serif" font-size="14" text-anchor="middle">2</text></g><g id="edge2" class="edge"><title>1-&gt;2</title><path fill="none" stroke="#000" d="M161.409,-22C170.781,-22 181.506,-22 191.563,-22"/><polygon fill="#000" stroke="#000" points="191.715 -25.5 201.715 -22 191.715 -18.5 191.715 -25.5"/><text x="181.435" y="-24.8" font-family="Times,serif" font-size="14" text-anchor="middle">r</text></g><g id="node4" class="node"><title>3</title><ellipse cx="319.979" cy="-22" fill="none" stroke="#000" rx="18" ry="18"/><ellipse cx="319.979" cy="-22" fill="none" stroke="#000" rx="22" ry="22"/><text x="319.979" y="-17.8" font-family="Times,serif" font-size="14" text-anchor="middle">3</text></g><g id="edge3" class="edge"><title>2-&gt;3</title><path fill="none" stroke="#000" d="M256.05,-22C265.968,-22 277.349,-22 287.682,-22"/><polygon fill="#000" stroke="#000" points="287.964 -25.5 297.964 -22 287.964 -18.5 287.964 -25.5"/><text x="276.873" y="-24.8" font-family="Times,serif" font-size="14" text-anchor="middle">e</text></g></g></svg>