<svg xmlns="http://www.w3.org/2000/svg" xmlns:xlink="http://www.w3.org/1999/xlink" width="361pt" height="98pt" viewBox="0 0 360.87 98"><g id="graph0" class="graph" transform="scale(1 1) rotate(0) translate(4 94)"><title>g</title><polygon fill="#fff" stroke="none" points="-4 4 -4 -94 356.869 -94 356.869 4 -4 4"/><g id="node1" class="node"><title>0</title><ellipse cx="27" cy="-46" fill="none" stroke="#000" rx="27" ry="18"/><text x="27" y="-41.8" font-family="Times,serif" font-size="14" text-anchor="middle">0</text></g><g id="node2" class="node"><title>1</title><ellipse cx="134.104" cy="-72" fill="none" stroke="#000" rx="27" ry="18"/><text x="134.104" y="-67.8" font-family="Times,serif" font-size="14" text-anchor="middle">1</text></g><g id="edge1" class="edge"><title>0-&gt;1</title><path fill="none" stroke="#000" d="M52.6421,-52.0958C66.347,-55.4861 83.6195,-59.7589 98.6444,-63.4757"/><polygon fill="#000" stroke="#000" points="98.068 -66.939 108.616 -65.942 99.749 -60.143 98.068 -66.939"/><text x="80.552" y="-62.8" font-family="Times,serif" font-size="14" text-anchor="middle">a/2</text></g><g id="node3" class="node"><title>6</title><ellipse cx="134.104" cy="-18" fill="none" stroke="#000" rx="27" ry="18"/><text x="134.104" y="-13.8" font-family="Times,serif" font-size="14" text-anchor="middle">6</text></g><g id="edge2" class="edge"><title>0-&gt;6</title><path fill="none" stroke="#000" d="M52.377,-39.5059C66.1731,-35.8305 83.6471,-31.1754 98.8069,-27.1368"/><polygon fill="#000" stroke="#000" points="100.097 -30.415 108.859 -24.459 98.295 -23.651 100.097 -30.415"/><text x="80.552" y="-35.8" font-family="Times,serif" font-size="14" text-anchor="middle">s/3</text></g><g id="node4" class="node"><title>2</title><ellipse cx="239.655" cy="-55" fill="none" stroke="#000" rx="27" ry="18"/><text x="239.655" y="-50.8" font-family="Times,serif" font-size="14" text-anchor="middle">2</text></g><g id="edge3" class="edge"><title>1-&gt;2</title><path fill="none" stroke="#000" d="M161.371,-72.7785C171.805,-72.6569 183.869,-71.9746 194.655,-70 198.563,-69.2847 202.594,-68.29 206.557,-67.1497"/><polygon fill="#000" stroke="#000" points="207.692 -70.461 216.159 -64.092 205.568 -63.791 207.692 -70.461"/><text x="186.879" y="-73.8" font-family="Times,serif" font-size="14" text-anchor="middle">r/2</text></g><g id="edge4" class="edge"><title>1-&gt;2</title><path fill="none" stroke="#000" d="M155.512,-60.5381C162.735,-57.0798 171.067,-53.7408 179.104,-52 186.771,-50.3391 195.119,-49.9245 203.071,-50.1639"/><polygon fill="#000" stroke="#000" points="203.006 -53.667 213.207 -50.806 203.448 -46.681 203.006 -53.667"/><text x="186.879" y="-54.8" font-family="Times,serif" font-size="14" text-anchor="middle">t</text></g><g id="edge6" class="edge"><title>6-&gt;2</title><path fill="none" stroke="#000" d="M160.435,-22.4907C171.171,-24.7673 183.706,-27.9252 194.655,-32 199.676,-33.8687 204.853,-36.1858 209.814,-38.6235"/><polygon fill="#000" stroke="#000" points="208.5 -41.884 218.99 -43.373 211.718 -35.668 208.5 -41.884"/><text x="186.879" y="-34.8" font-family="Times,serif" font-size="14" text-anchor="middle">e</text></g><g id="node5" class="node"><title>3</title><ellipse cx="330.869" cy="-55" fill="none" stroke="#000" rx="18" ry="18"/><ellipse cx="330.869" cy="-55" fill="none" stroke="#000" rx="22" ry="22"/><text x="330.869" y="-50.8" font-family="Times,serif" font-size="14" text-anchor="middle">3</text></g><g id="edge5" class="edge"><title>2-&gt;3</title><path fill="none" stroke="#000" d="M266.94,-55C276.858,-55 288.239,-55 298.571,-55"/><polygon fill="#000" stroke="#000" points="298.854 -58.5 308.854 -55 298.854 -51.5 298.854 -58.5"/><text x="287.762" y="-57.8" font-family="Times,serif" font-size="14" text-anchor="middle">e</text></g></g></svg>